<?xml version="1.0" encoding="UTF-8"?>
<svg id="Layer_1" xmlns="http://www.w3.org/2000/svg" version="1.1" viewBox="0 0 1080 1080">
  <!-- Generator: Adobe Illustrator 29.8.6, SVG Export Plug-In . SVG Version: 2.1.1 Build 1)  -->
  <defs>
    <style>
      .st0 {
        fill: #fff;
        stroke: #fff;
        stroke-miterlimit: 48;
        stroke-width: 4.8px;
      }
    </style>
  </defs>
  <g id="symbol">
    <path class="st0" d="M680,289.1c75-15.3,158.4,57.7,135.9,135.9-15,91-151.9,112.2-203.2,41.1-22.3-31.4-33.2-74.1-18.5-111,13.9-35.6,49-59.4,85.8-66h0Z"/>
    <path class="st0" d="M332.2,558.1c66.5-24.3,144,37.8,140.1,107.2,1.8,63.4-61.5,122.1-124.9,111.1-68-13-108.8-95.4-81.9-158.2,12.9-27.8,37.7-49.9,66.6-60.2Z"/>
    <path class="st0" d="M48.8,34.3c58.5-8,95.2,54.8,92.1,106.3,1.7,53.2-41.6,102.9-95.6,104.7,0-70.3-3.6-140.9,3.5-211h0Z"/>
    <path class="st0" d="M47,547.9c35.9,10.5,72.1,29,90.1,63.7,37.2,69.1-10.8,168.6-92.3,172.7,0,0-2.9-157.8,2.1-236.4Z"/>
    <path class="st0" d="M45,826.7c31.1,8.5,63.6,20.9,81.3,49.7,37,47.1,23.9,120.1-22.2,156.2-17,12.8-39.6,10.6-59.5,13.4-1.8-73,.3-219.2.3-219.2Z"/>
    <path class="st0" d="M324.7,42.5c39.7-20.9,86.5-.4,113,32,33.9,35.6,36.1,97.9,2.2,134.3-23.3,25.6-59.9,37.3-93.7,33.8-58.2-7.4-96-71.7-86.5-127.1,8.8-32.7,36-57.6,65-73.1h0Z"/>
    <path class="st0" d="M654.3,42.3c60.9-25.8,136.1,9.5,159.2,70.3,10.5,39.5-1.2,88-37.2,110.8-35.7,22.7-82.1,28.9-122.6,16.5-69.2-22.3-86.2-125.4-34.5-173.4,10.1-10.1,21.8-18.5,35-24.2h0Z"/>
    <path class="st0" d="M324.6,296.9c56.4-26.7,125.4,15.7,139.7,73.3,15.3,55.2-18.1,122.7-76.5,134.2-62.7,14.7-127.4-38.3-129.4-101.8-7.6-46,25.6-88.5,66.3-105.7h0Z"/>
    <path class="st0" d="M969.5,315.2c17.3-16.2,41.4-20.6,63.6-26,4.2,73.1,3.9,146.4,1.7,219.6-20.8-5.3-43.8-8.3-60.6-22.9-49.4-41-56.4-128.7-4.7-170.8h0Z"/>
    <path class="st0" d="M663.3,560.2c69.1-28.4,161.6,27.1,155.7,105.1,1.5,74.7-79.9,133-150.5,109.4-66.2-15.2-98.3-96.4-71.4-155.9,13.3-27.2,38.2-48,66.3-58.7h0Z"/>
    <path class="st0" d="M962.2,587.2c17.5-21.6,45.3-28.5,71.3-33.9,3.6,75.7,2.5,151.5.3,227.3-26.5-6.4-56.1-12.2-73.7-35-35-44.3-40.1-116.8,2.1-158.3h0Z"/>
    <path class="st0" d="M341.4,831c65.9-18.1,139.1,43.4,130.4,111.7-2.5,54.6-51.8,106-108.4,100.6-54.7,2.3-101.7-45.4-106.2-98.4-6.5-52.3,34.6-101.7,84.2-113.8Z"/>
    <path class="st0" d="M671.7,832c51.2-13.1,110.7,10.6,135.4,58.2,21.1,41.3,13,97.7-24.2,127.3-31.2,27.9-76.2,27.7-115.2,23-64.3-10-100.6-93.1-69.2-148.7,15.8-27.8,41.9-51.1,73.2-59.8h0Z"/>
    <path class="st0" d="M965.3,861.1c18.1-18.4,43.7-25,67.6-32,2.8,72.4,4.5,144.9.5,217.3-20.6-3.6-43.7-3.6-60.4-17.6-49.2-40-54.9-124.1-7.7-167.7h0Z"/>
    <path class="st0" d="M978.1,52.8c15.6-12.5,36.1-14.1,54.9-18.4,4.1,70.3,4,140.8.8,211.2-22.9-4.7-48.6-6.9-66.1-24.2-46.9-43.9-42-130.9,10.4-168.6h0Z"/>
    <path class="st0" d="M129.1,331.7c45.8,66.4-.3,175.4-84.9,176.5-.5-74.7-.9-149.5,1.1-224.1,0,0,66.4,17.6,83.8,47.6Z"/>
  </g>
</svg>